<svg xmlns="http://www.w3.org/2000/svg" viewBox="0 0 48 48" width="48px" height="48px">
  <path fill="#1565C0" d="M13.5,24.3c0,0.8,0.6,1.3,1.3,1.3h3.3l0.9-5.6h-3.3C14.1,20,13.5,20.6,13.5,21.4V24.3z"/>
  <path fill="#1565C0" d="M24.9,20h-3.3l-0.9,5.6h3.3c0.7,0,1.3-0.6,1.3-1.3v-2.9C25.2,20.6,24.6,20,24.9,20z"/>
  <path fill="#1565C0" d="M24,4C12.9,4,4,12.9,4,24s8.9,20,20,20s20-8.9,20-20S35.1,4,24,4z M29.8,27.7c0,1.5-1.2,2.7-2.7,2.7h-4.9 l-1.2,7.2h-4.3l1.2-7.2h-4.9c-1.5,0-2.7-1.2-2.7-2.7v-6.2c0-1.5,1.2-2.7,2.7-2.7h4.9l1.2-7.2h4.3l-1.2,7.2h4.9 c1.5,0,2.7,1.2,2.7,2.7V27.7z"/>
</svg> 