<svg xmlns="http://www.w3.org/2000/svg" viewBox="0 0 48 48" width="48px" height="48px">
  <path fill="#1565C0" d="M45,35c0,2.209-1.791,4-4,4H7c-2.209,0-4-1.791-4-4V13c0-2.209,1.791-4,4-4h34c2.209,0,4,1.791,4,4V35z"/>
  <path fill="#FFF" d="M15.186 19l-2.626 7.832c0 0-.667-3.313-.733-3.729-1.495-3.411-3.701-3.221-3.701-3.221L10.726 30v-.002h3.161L18.258 19H15.186zM17.689 30L20.56 19h2.814l-2.857 11H17.689zM24.233 19l-2.44 11h2.675l2.44-11H24.233zM31.321 19h-2.894l-4.679 11h2.672l.587-1.416h3.596l.384 1.416h2.326L31.321 19zM27.698 26.6l1.563-3.977.874 3.977H27.698z"/>
</svg> 